PathFileType	4	(X/Y/Z)	C:\Users\visiteur\Documents\Sourcetree_OSPipeline\dataTest\rep_global_FRMB_Diane\SA04BD\Statique\Static_B_ref.trc
DataRate	CameraRate	NumFrames	NumMarkers	Units	OrigDataRate	OrigDataStartFrame	OrigNumFrames
100	100	8	43	m	100	109	243
Frame#	Time	MTTETE			TEMPG			OCCG			OCCD			TEMPD			MAN			C7			T8			XYP			COSTALD			COSTALG			MTACDL			MTACDM			MTACDB			ACD			CLAVD			MTACGL			MTACGM			MTACGB			ACG			CLAVG			MTBHAG			MTBHPG			MTBBPG			MTBBAG			ELG			EMG			MTABG			PSRG			PSUG			MC2G			MC5G			MTBHAD			MTBHPD			MTBBPD			MTBBAD			ELD			EMD			MTABD			PSRD			PSUD			MC2D			MC5D			
		X1	Y1	Z1	X2	Y2	Z2	X3	Y3	Z3	X4	Y4	Z4	X5	Y5	Z5	X6	Y6	Z6	X7	Y7	Z7	X8	Y8	Z8	X9	Y9	Z9	X10	Y10	Z10	X11	Y11	Z11	X12	Y12	Z12	X13	Y13	Z13	X14	Y14	Z14	X15	Y15	Z15	X16	Y16	Z16	X17	Y17	Z17	X18	Y18	Z18	X19	Y19	Z19	X20	Y20	Z20	X21	Y21	Z21	X22	Y22	Z22	X23	Y23	Z23	X24	Y24	Z24	X25	Y25	Z25	X26	Y26	Z26	X27	Y27	Z27	X28	Y28	Z28	X29	Y29	Z29	X30	Y30	Z30	X31	Y31	Z31	X32	Y32	Z32	X33	Y33	Z33	X34	Y34	Z34	X35	Y35	Z35	X36	Y36	Z36	X37	Y37	Z37	X38	Y38	Z38	X39	Y39	Z39	X40	Y40	Z40	X41	Y41	Z41	X42	Y42	Z42	X43	Y43	Z43	
61	0.6100	-0.358741	1.713164	0.053910	-0.313839	1.680239	0.108253	-0.198077	1.647846	0.101758	-0.192189	1.643603	-0.058581	-0.322107	1.692579	-0.050562	-0.315044	1.424778	0.027605	-0.151305	1.495889	0.008400	-0.114986	1.299235	0.008707	-0.370695	1.213039	0.025176	-0.371407	1.168474	-0.056024	-0.354994	1.158529	0.107011	-0.159207	1.430259	-0.155426	-0.123970	1.456468	-0.119916	-0.122095	1.422159	-0.144532	-0.215111	1.441625	-0.178559	-0.286712	1.449206	-0.066183	-0.115611	1.427111	0.159042	-0.090680	1.450896	0.114130	-0.083665	1.416395	0.138517	-0.164244	1.443105	0.199561	-0.262485	1.452737	0.115163	-0.199098	1.384794	0.302493	-0.147329	1.371697	0.290747	-0.109879	1.296064	0.339015	-0.198458	1.315449	0.362075	-0.126269	1.200523	0.395908	-0.185348	1.152955	0.352049	-0.189631	1.163352	0.515791	-0.187314	1.094726	0.620954	-0.164800	1.046155	0.603366	-0.189245	1.047647	0.704549	-0.181588	0.996041	0.656276	-0.203455	1.320148	-0.275294	-0.163031	1.293792	-0.254227	-0.191890	1.236602	-0.319151	-0.246603	1.268083	-0.350024	-0.223545	1.188963	-0.365336	-0.245028	1.129964	-0.301547	-0.307623	1.112176	-0.487631	-0.353646	1.060942	-0.549402	-0.321115	1.017185	-0.540648	-0.385557	1.008235	-0.619325	-0.358076	0.956633	-0.576632	
62	0.6200	-0.358682	1.713228	0.053915	-0.313836	1.680249	0.108276	-0.198099	1.647779	0.101855	-0.192103	1.643561	-0.058493	-0.321998	1.692625	-0.050538	-0.315088	1.424769	0.027633	-0.151334	1.495863	0.008447	-0.115018	1.299220	0.008715	-0.370728	1.213027	0.025185	-0.371446	1.168464	-0.056010	-0.355029	1.158514	0.107017	-0.159198	1.430273	-0.155437	-0.124009	1.456436	-0.119872	-0.122126	1.422158	-0.144518	-0.215161	1.441615	-0.178526	-0.286756	1.449203	-0.066148	-0.115645	1.427075	0.159081	-0.090704	1.450876	0.114166	-0.083696	1.416370	0.138547	-0.164228	1.443062	0.199591	-0.262532	1.452719	0.115194	-0.199122	1.384749	0.302519	-0.147340	1.371647	0.290758	-0.109906	1.296019	0.339035	-0.198483	1.315399	0.362089	-0.126304	1.200453	0.395904	-0.185392	1.152899	0.352051	-0.189658	1.163278	0.515791	-0.187340	1.094647	0.620949	-0.164819	1.046065	0.603346	-0.189260	1.047552	0.704537	-0.181604	0.995967	0.656260	-0.203507	1.320133	-0.275257	-0.163099	1.293771	-0.254187	-0.191950	1.236583	-0.319115	-0.246663	1.268058	-0.349982	-0.223631	1.188944	-0.365290	-0.245097	1.129947	-0.301498	-0.307722	1.112144	-0.487565	-0.353764	1.060901	-0.549324	-0.321234	1.017146	-0.540568	-0.385688	1.008185	-0.619238	-0.358202	0.956592	-0.576546	
63	0.6300	-0.358634	1.713282	0.053924	-0.313840	1.680256	0.108303	-0.198128	1.647718	0.101956	-0.192023	1.643527	-0.058402	-0.321897	1.692665	-0.050510	-0.315133	1.424758	0.027664	-0.151366	1.495836	0.008497	-0.115053	1.299206	0.008726	-0.370766	1.213015	0.025193	-0.371483	1.168454	-0.055997	-0.355074	1.158500	0.107025	-0.159182	1.430292	-0.155452	-0.124050	1.456408	-0.119827	-0.122160	1.422161	-0.144499	-0.215217	1.441606	-0.178487	-0.286801	1.449201	-0.066110	-0.115681	1.427035	0.159122	-0.090731	1.450854	0.114204	-0.083731	1.416341	0.138579	-0.164201	1.443015	0.199625	-0.262581	1.452700	0.115229	-0.199146	1.384702	0.302551	-0.147357	1.371598	0.290774	-0.109934	1.295970	0.339053	-0.198505	1.315349	0.362107	-0.126336	1.200380	0.395900	-0.185437	1.152842	0.352059	-0.189680	1.163207	0.515794	-0.187361	1.094571	0.620948	-0.164831	1.045983	0.603331	-0.189262	1.047465	0.704530	-0.181615	0.995900	0.656249	-0.203566	1.320122	-0.275219	-0.163172	1.293754	-0.254152	-0.192016	1.236571	-0.319082	-0.246735	1.268037	-0.349937	-0.223720	1.188926	-0.365241	-0.245169	1.129933	-0.301445	-0.307830	1.112115	-0.487497	-0.353889	1.060866	-0.549244	-0.321359	1.017112	-0.540488	-0.385827	1.008141	-0.619150	-0.358340	0.956556	-0.576454	
64	0.6400	-0.358599	1.713324	0.053939	-0.313851	1.680258	0.108335	-0.198162	1.647663	0.102059	-0.191950	1.643502	-0.058309	-0.321808	1.692699	-0.050477	-0.315179	1.424747	0.027699	-0.151400	1.495809	0.008553	-0.115089	1.299192	0.008738	-0.370807	1.213005	0.025201	-0.371517	1.168443	-0.055982	-0.355131	1.158488	0.107035	-0.159164	1.430314	-0.155468	-0.124094	1.456386	-0.119780	-0.122197	1.422167	-0.144475	-0.215277	1.441598	-0.178441	-0.286847	1.449199	-0.066068	-0.115722	1.426991	0.159167	-0.090760	1.450829	0.114244	-0.083768	1.416307	0.138612	-0.164164	1.442965	0.199663	-0.262631	1.452681	0.115267	-0.199170	1.384656	0.302588	-0.147378	1.371551	0.290795	-0.109963	1.295919	0.339068	-0.198527	1.315299	0.362127	-0.126366	1.200307	0.395898	-0.185483	1.152786	0.352073	-0.189698	1.163138	0.515801	-0.187376	1.094498	0.620950	-0.164837	1.045909	0.603322	-0.189253	1.047384	0.704529	-0.181621	0.995837	0.656241	-0.203633	1.320115	-0.275181	-0.163249	1.293744	-0.254122	-0.192091	1.236566	-0.319051	-0.246820	1.268020	-0.349889	-0.223815	1.188909	-0.365190	-0.245245	1.129922	-0.301389	-0.307944	1.112090	-0.487427	-0.354021	1.060837	-0.549163	-0.321490	1.017084	-0.540407	-0.385971	1.008103	-0.619064	-0.358488	0.956526	-0.576358	
65	0.6500	-0.358577	1.713354	0.053961	-0.313867	1.680254	0.108372	-0.198200	1.647616	0.102164	-0.191887	1.643486	-0.058213	-0.321733	1.692728	-0.050437	-0.315226	1.424737	0.027737	-0.151436	1.495780	0.008612	-0.115126	1.299179	0.008755	-0.370852	1.212996	0.025209	-0.371552	1.168433	-0.055966	-0.355199	1.158476	0.107047	-0.159146	1.430338	-0.155479	-0.124137	1.456370	-0.119734	-0.122235	1.422175	-0.144446	-0.215341	1.441593	-0.178388	-0.286892	1.449198	-0.066022	-0.115766	1.426944	0.159213	-0.090791	1.450803	0.114286	-0.083808	1.416270	0.138648	-0.164124	1.442914	0.199705	-0.262681	1.452662	0.115309	-0.199196	1.384610	0.302629	-0.147403	1.371507	0.290819	-0.109994	1.295867	0.339082	-0.198549	1.315250	0.362150	-0.126397	1.200235	0.395899	-0.185528	1.152732	0.352092	-0.189712	1.163073	0.515813	-0.187385	1.094428	0.620958	-0.164840	1.045843	0.603321	-0.189235	1.047310	0.704534	-0.181624	0.995779	0.656239	-0.203709	1.320113	-0.275144	-0.163328	1.293741	-0.254099	-0.192173	1.236569	-0.319022	-0.246919	1.268006	-0.349838	-0.223916	1.188896	-0.365136	-0.245324	1.129915	-0.301330	-0.308064	1.112069	-0.487356	-0.354158	1.060816	-0.549083	-0.321624	1.017064	-0.540327	-0.386119	1.008073	-0.618978	-0.358645	0.956502	-0.576258	
66	0.6600	-0.358568	1.713371	0.053991	-0.313888	1.680244	0.108416	-0.198240	1.647577	0.102269	-0.191836	1.643479	-0.058115	-0.321673	1.692750	-0.050390	-0.315274	1.424729	0.027778	-0.151474	1.495752	0.008676	-0.115165	1.299167	0.008775	-0.370901	1.212990	0.025218	-0.371587	1.168423	-0.055948	-0.355275	1.158466	0.107060	-0.159136	1.430362	-0.155480	-0.124180	1.456361	-0.119686	-0.122276	1.422183	-0.144413	-0.215409	1.441590	-0.178330	-0.286937	1.449200	-0.065973	-0.115813	1.426896	0.159261	-0.090824	1.450775	0.114329	-0.083851	1.416231	0.138686	-0.164089	1.442863	0.199749	-0.262732	1.452642	0.115355	-0.199223	1.384566	0.302673	-0.147429	1.371466	0.290847	-0.110026	1.295816	0.339097	-0.198572	1.315204	0.362177	-0.126427	1.200166	0.395905	-0.185571	1.152681	0.352115	-0.189722	1.163011	0.515830	-0.187388	1.094361	0.620971	-0.164839	1.045783	0.603328	-0.189210	1.047241	0.704546	-0.181624	0.995724	0.656243	-0.203791	1.320113	-0.275106	-0.163409	1.293742	-0.254082	-0.192262	1.236578	-0.318996	-0.247032	1.267995	-0.349786	-0.224021	1.188884	-0.365080	-0.245407	1.129911	-0.301269	-0.308188	1.112054	-0.487284	-0.354298	1.060803	-0.549005	-0.321763	1.017051	-0.540246	-0.386271	1.008051	-0.618894	-0.358806	0.956486	-0.576158	
67	0.6700	-0.358572	1.713377	0.054031	-0.313915	1.680228	0.108465	-0.198281	1.647545	0.102374	-0.191797	1.643481	-0.058016	-0.321630	1.692768	-0.050336	-0.315325	1.424723	0.027822	-0.151512	1.495725	0.008743	-0.115203	1.299157	0.008799	-0.370952	1.212986	0.025229	-0.371623	1.168416	-0.055928	-0.355359	1.158457	0.107073	-0.159138	1.430382	-0.155466	-0.124222	1.456355	-0.119638	-0.122318	1.422191	-0.144374	-0.215478	1.441589	-0.178268	-0.286982	1.449203	-0.065922	-0.115861	1.426847	0.159309	-0.090858	1.450746	0.114375	-0.083894	1.416190	0.138725	-0.164071	1.442814	0.199796	-0.262782	1.452624	0.115404	-0.199253	1.384524	0.302720	-0.147458	1.371428	0.290877	-0.110058	1.295767	0.339112	-0.198597	1.315160	0.362209	-0.126457	1.200102	0.395917	-0.185611	1.152632	0.352143	-0.189731	1.162954	0.515852	-0.187383	1.094298	0.620990	-0.164836	1.045729	0.603343	-0.189182	1.047177	0.704566	-0.181620	0.995674	0.656255	-0.203879	1.320117	-0.275067	-0.163488	1.293748	-0.254070	-0.192355	1.236592	-0.318971	-0.247155	1.267987	-0.349732	-0.224131	1.188875	-0.365023	-0.245494	1.129912	-0.301206	-0.308315	1.112045	-0.487213	-0.354442	1.060800	-0.548928	-0.321905	1.017045	-0.540166	-0.386426	1.008038	-0.618812	-0.358971	0.956478	-0.576059	
68	0.6800	-0.358587	1.713374	0.054079	-0.313948	1.680207	0.108520	-0.198323	1.647518	0.102477	-0.191771	1.643491	-0.057915	-0.321602	1.692782	-0.050275	-0.315378	1.424720	0.027868	-0.151550	1.495701	0.008811	-0.115243	1.299148	0.008826	-0.371003	1.212984	0.025240	-0.371662	1.168410	-0.055907	-0.355447	1.158448	0.107088	-0.159153	1.430399	-0.155437	-0.124262	1.456352	-0.119589	-0.122362	1.422198	-0.144332	-0.215547	1.441590	-0.178204	-0.287028	1.449208	-0.065869	-0.115909	1.426800	0.159357	-0.090893	1.450716	0.114422	-0.083937	1.416149	0.138767	-0.164078	1.442770	0.199843	-0.262832	1.452606	0.115456	-0.199285	1.384484	0.302769	-0.147487	1.371392	0.290909	-0.110089	1.295720	0.339130	-0.198624	1.315120	0.362244	-0.126487	1.200043	0.395934	-0.185649	1.152586	0.352176	-0.189737	1.162901	0.515879	-0.187373	1.094239	0.621014	-0.164830	1.045679	0.603366	-0.189151	1.047118	0.704592	-0.181614	0.995626	0.656273	-0.203971	1.320122	-0.275027	-0.163565	1.293756	-0.254060	-0.192450	1.236610	-0.318947	-0.247286	1.267982	-0.349678	-0.224242	1.188868	-0.364969	-0.245584	1.129916	-0.301145	-0.308444	1.112042	-0.487143	-0.354589	1.060806	-0.548853	-0.322051	1.017045	-0.540088	-0.386584	1.008034	-0.618732	-0.359138	0.956480	-0.575965	
